# xmcd CD database file
#
# Track frame offsets:
#	150
#	13627
#	26870
#	44575
#	57157
#	72865
#	89452
#	105030
#	117742
#	131875
#	144777
#	158192
#	173240
#	187057
#	201670
#	211900
#	226905
#	239372
#	249572
#	263747
#	277887
#	295972
#	316307
#
# Disc length: 4398 seconds
#
# Revision: 0
# Processed by: cddbd v1.5.2PL0 Copyright (c) Steve Scherf et al.
# Submitted via: CDex 1.70beta2
#
DISCID=57112c17
DTITLE=Jones Country - Jones Country JCY-016
DYEAR=0000
DGENRE=Country
TTITLE0=Waylon Jennings/I May Be Used (But Baby I Ain't Used Up)
TTITLE1=Waylon Jennings and Willie Nelson/Just To Satisfy You
TTITLE2=Waylon Jennings/ and Hank Williams Jr/Conversation
TTITLE3=Waylon Jennings/Working Without A Net
TTITLE4=Michael Johnson/Crying Shame
TTITLE5=Michael Johnson/I Will Whisper Your Name
TTITLE6=George Jones/Shine On (Shine All Your Sweet Love On Me)
TTITLE7=Johnny Lee/Hey Bartender
TTITLE8=Johnny Lee/Prisoner Of Hope
TTITLE9=Jerry Lee Lewis/Chantilly Lace
TTITLE10=Barbara Mandrell/I Wish That I Could Fall In Love Today
TTITLE11=Lee Greenwood and Barbara Mandrell/To Me
TTITLE12=Barbara Mandrell/Tonight
TTITLE13=Charly McClain/Radio Heart
TTITLE14=Charly McClain/That's What You Do To Me
TTITLE15=Charly McClain/With Just One Look In Your Eyes
TTITLE16=Mel McDaniel/Big Ole Brew
TTITLE17=Mel McDaniel/Let It Roll (Let It Rock)
TTITLE18=Reba McEntire/A Sunday Kind Of Love
TTITLE19=Ronnie Milsap/Don't You Ever Get Tired (Of Hurting Me)
TTITLE20=Ronnie Milsap and Mike Reid/Old Folks
TTITLE21=Ronnie Milsap/Where Do The Nights Go
TTITLE22=Anne Murray/Another Sleepless Night
EXTD=YEAR: 0000
EXTT0=
EXTT1=
EXTT2=
EXTT3=
EXTT4=
EXTT5=
EXTT6=
EXTT7=
EXTT8=
EXTT9=
EXTT10=
EXTT11=
EXTT12=
EXTT13=
EXTT14=
EXTT15=
EXTT16=
EXTT17=
EXTT18=
EXTT19=
EXTT20=
EXTT21=
EXTT22=
PLAYORDER=
